<svg xmlns="http://www.w3.org/2000/svg" width="140.197" height="66.881" viewBox="0 0 140.197 66.881"><g transform="translate(-612.902)"><rect width="140.197" height="66.881" transform="translate(612.902)"/><path d="M672.345,21.188h-2.716v-1.4h6.95v1.4h-2.716v7.169h-1.518Z" fill="#fff"/><path d="M679.392,19.793h1.5v3.56h4.087v-3.56h1.505v8.564h-1.505V24.748H680.9v3.609h-1.5Z" fill="#fff"/><path d="M689.912,19.793h6.349v1.346h-4.844v2.226h4.294v1.346h-4.294v2.3h4.905v1.346h-6.41Z" fill="#fff"/><path d="M645.724,40.32v-.037a6.5,6.5,0,0,1,6.624-6.643,6.693,6.693,0,0,1,5.028,2l-1.449,1.67a5.108,5.108,0,0,0-3.6-1.6,4.323,4.323,0,0,0-4.239,4.533v.036a4.328,4.328,0,0,0,4.239,4.551,5.017,5.017,0,0,0,3.688-1.651l1.45,1.468a6.63,6.63,0,0,1-5.212,2.275A6.46,6.46,0,0,1,645.724,40.32Z" fill="#fff"/><path d="M659.65,33.861h9.524v2.018h-7.266v3.34h6.441v2.019h-6.441v3.449h7.359v2.019H659.65Z" fill="#fff"/><path d="M671.761,33.861h2.092l6.882,8.882V33.861h2.221V46.706h-1.891l-7.083-9.138v9.138h-2.221Z" fill="#fff"/><path d="M689.23,35.953h-4.074V33.861H695.58v2.092h-4.074V46.706H689.23Z" fill="#fff"/><path d="M697.78,33.861h5.726a5.178,5.178,0,0,1,3.707,1.284,3.883,3.883,0,0,1,1.064,2.771v.037a3.857,3.857,0,0,1-3.046,3.89l3.468,4.863H706.02l-3.156-4.478h-2.826v4.478H697.78Zm5.561,6.367c1.615,0,2.642-.844,2.642-2.147v-.036c0-1.377-.991-2.129-2.66-2.129h-3.285v4.312Z" fill="#fff"/><path d="M710.863,33.861h9.525v2.018h-7.267v3.34h6.441v2.019h-6.441v3.449h7.359v2.019h-9.617Z" fill="#fff"/><rect width="30.879" height="0.785" transform="translate(702.381 27.725)" fill="#fff"/><rect width="31.587" height="0.785" transform="translate(633.163 27.725)" fill="#fff"/></g></svg>