<svg xmlns="http://www.w3.org/2000/svg" width="140.197" height="66.881" viewBox="0 0 140.197 66.881"><g transform="translate(-612.902 -3498.119)"><rect width="140.197" height="66.881" transform="translate(612.902 3498.119)" fill="#fff"/><path d="M672.345,3519.307h-2.716v-1.395h6.95v1.395h-2.716v7.169h-1.518Z"/><path d="M679.392,3517.912h1.5v3.56h4.087v-3.56h1.505v8.564h-1.505v-3.609H680.9v3.609h-1.5Z"/><path d="M689.912,3517.912h6.349v1.346h-4.844v2.227h4.294v1.345h-4.294v2.3h4.905v1.346h-6.41Z"/><path d="M645.724,3538.439v-.036a6.5,6.5,0,0,1,6.624-6.644,6.693,6.693,0,0,1,5.028,2l-1.449,1.67a5.108,5.108,0,0,0-3.6-1.6,4.323,4.323,0,0,0-4.239,4.533v.037a4.328,4.328,0,0,0,4.239,4.551,5.014,5.014,0,0,0,3.688-1.652l1.45,1.468a6.627,6.627,0,0,1-5.212,2.276A6.46,6.46,0,0,1,645.724,3538.439Z"/><path d="M659.65,3531.98h9.524V3534h-7.266v3.34h6.441v2.019h-6.441v3.45h7.359v2.018H659.65Z"/><path d="M671.761,3531.98h2.092l6.882,8.882v-8.882h2.221v12.845h-1.891l-7.083-9.138v9.138h-2.221Z"/><path d="M689.23,3534.072h-4.074v-2.092H695.58v2.092h-4.074v10.753H689.23Z"/><path d="M697.78,3531.98h5.726a5.178,5.178,0,0,1,3.707,1.284,3.884,3.884,0,0,1,1.064,2.771v.037a3.856,3.856,0,0,1-3.046,3.89l3.468,4.863H706.02l-3.156-4.477h-2.826v4.477H697.78Zm5.561,6.368c1.615,0,2.642-.845,2.642-2.147v-.037c0-1.377-.991-2.129-2.66-2.129h-3.285v4.313Z"/><path d="M710.863,3531.98h9.525V3534h-7.267v3.34h6.441v2.019h-6.441v3.45h7.359v2.018h-9.617Z"/><rect width="30.879" height="0.785" transform="translate(702.381 3525.844)"/><rect width="31.587" height="0.785" transform="translate(633.163 3525.844)"/></g></svg>