<?xml version="1.0" encoding="utf-8"?>
<!-- Generator: Adobe Illustrator 23.0.4, SVG Export Plug-In . SVG Version: 6.00 Build 0)  -->
<svg version="1.1" id="Layer_1" xmlns="http://www.w3.org/2000/svg" xmlns:xlink="http://www.w3.org/1999/xlink" x="0px" y="0px"
	 viewBox="0 0 214 214" style="enable-background:new 0 0 214 214;" xml:space="preserve">
<style type="text/css">
	.st0{fill:#BF8845;}
	.st1{enable-background:new    ;}
	.st2{fill:#FFFFFF;}
</style>
<g transform="translate(-1534 -4369)">
	<circle class="st0" cx="1641" cy="4476" r="107"/>
	<g transform="translate(-537 2419)">
		<g class="st1">
			<path class="st2" d="M2109.1,2063.1l0.8-2.9c0.7,0.4,1.6,0.7,2.6,1c1,0.3,1.9,0.4,2.8,0.4c1.4,0,2.5-0.2,3.2-0.7
				c0.7-0.5,1.1-1.2,1.1-2c0-0.6-0.2-1.1-0.6-1.5c-0.4-0.5-0.9-0.9-1.6-1.2c-0.6-0.4-1.5-0.8-2.7-1.4c-2-1-3.5-2-4.5-3.1
				c-1-1-1.5-2.3-1.5-3.8c0-1.1,0.3-2.1,0.9-2.9c0.6-0.9,1.4-1.5,2.5-2c1.1-0.5,2.4-0.8,3.9-0.8c1,0,2,0.1,3.1,0.4s2,0.7,2.9,1.1
				l-1.2,2.8c-0.8-0.4-1.6-0.7-2.3-0.9c-0.7-0.2-1.5-0.3-2.4-0.3c-1.1,0-2,0.2-2.7,0.6s-1.1,1.1-1.1,1.9c0,0.6,0.2,1.1,0.6,1.6
				c0.4,0.5,0.9,0.9,1.5,1.2c0.6,0.4,1.6,0.9,2.9,1.5c1.4,0.7,2.5,1.3,3.3,1.9c0.8,0.6,1.5,1.2,2,2c0.5,0.8,0.8,1.7,0.8,2.8
				c0,1.2-0.3,2.2-0.9,3.1c-0.6,0.9-1.5,1.6-2.7,2.1c-1.2,0.5-2.7,0.8-4.3,0.8c-0.9,0-2-0.2-3.4-0.6
				C2110.6,2063.9,2109.7,2063.5,2109.1,2063.1z"/>
			<path class="st2" d="M2126.5,2046.4c-0.6,0-1.1-0.2-1.5-0.6c-0.4-0.4-0.6-0.9-0.6-1.5c0-0.6,0.2-1.1,0.6-1.5
				c0.4-0.4,0.9-0.6,1.5-0.6c0.6,0,1.1,0.2,1.5,0.6c0.4,0.4,0.6,0.9,0.6,1.5c0,0.6-0.2,1.1-0.6,1.5
				C2127.6,2046.2,2127.1,2046.4,2126.5,2046.4z M2124.8,2064.5v-15.5h3.6v15.5H2124.8z"/>
			<path class="st2" d="M2144.6,2048.9v16.6c0,1.9-0.7,3.5-2.1,4.6c-1.4,1.1-3.3,1.7-5.7,1.7c-0.8,0-1.8-0.2-3-0.4
				c-1.2-0.3-2.2-0.7-2.9-1.2l1.1-2.6c1,0.4,1.8,0.8,2.5,1c0.7,0.2,1.4,0.3,2.2,0.3c1.3,0,2.3-0.3,3.1-0.9c0.8-0.6,1.2-1.4,1.2-2.5
				v-1.7c-0.6,0.3-1.1,0.6-1.7,0.8c-0.6,0.2-1.2,0.3-1.7,0.3c-1.6,0-2.9-0.3-4.1-1s-2.1-1.6-2.7-2.9c-0.6-1.2-0.9-2.7-0.9-4.3
				c0-1.6,0.3-3,0.9-4.3c0.6-1.2,1.5-2.2,2.7-2.8s2.6-1,4.1-1c0.6,0,1.4,0.1,2.1,0.4c0.8,0.3,1.5,0.7,2.1,1.2l0.8-1.2H2144.6z
				 M2139.3,2061.5c0.5-0.2,1.1-0.5,1.6-1v-7.6c-0.5-0.4-1-0.8-1.6-1c-0.5-0.2-1.1-0.3-1.8-0.3c-1.3,0-2.3,0.5-3,1.4
				c-0.7,0.9-1.1,2.1-1.1,3.6c0,1.6,0.4,2.8,1.1,3.7c0.7,0.9,1.7,1.4,3,1.4C2138.2,2061.8,2138.8,2061.7,2139.3,2061.5z"/>
			<path class="st2" d="M2150.7,2064.5h-3.6v-15.5h2.4l0.6,1.9c0.9-0.7,1.9-1.3,2.9-1.7s2.1-0.6,3-0.6c1.8,0,3.1,0.5,3.9,1.6
				c0.8,1.1,1.2,2.6,1.2,4.4v10h-3.6v-9.8c0-2.2-0.8-3.2-2.4-3.2c-1.3,0-2.8,0.7-4.5,2.1V2064.5z"/>
			<path class="st2" d="M2191.9,2049.9c0.8,1,1.2,2.4,1.2,4.2v10.3h-3.6v-9.8c0-1.1-0.2-1.9-0.5-2.4c-0.3-0.5-0.9-0.8-1.7-0.8
				c-0.6,0-1.3,0.2-2,0.5c-0.7,0.4-1.4,0.9-2.2,1.5c0,0.1,0,0.4,0,0.7v10.3h-3.6v-9.8c0-1.1-0.2-1.9-0.5-2.4s-0.9-0.8-1.7-0.8
				c-1.1,0-2.6,0.7-4.3,2.1v10.8h-3.6v-15.5h2.4l0.6,1.9c0.9-0.7,1.9-1.3,2.9-1.7s2-0.6,2.8-0.6c2.1,0,3.5,0.8,4.3,2.3
				c0.9-0.7,1.9-1.3,2.9-1.7c1-0.4,1.9-0.6,2.8-0.6C2189.9,2048.4,2191.1,2048.9,2191.9,2049.9z"/>
			<path class="st2" d="M2208.9,2057.6h-10.8c0.3,2.8,2,4.2,5,4.2c0.8,0,1.6-0.1,2.2-0.3c0.7-0.2,1.4-0.6,2.4-1l1.1,2.6
				c-1.7,1.2-3.6,1.8-5.7,1.8c-2.8,0-5-0.7-6.4-2.2c-1.5-1.5-2.2-3.5-2.2-6c0-1.6,0.3-3,0.9-4.3c0.6-1.2,1.5-2.2,2.6-2.9
				c1.1-0.7,2.5-1,4-1c2.3,0,4,0.8,5.2,2.3c1.2,1.5,1.8,3.4,1.8,5.8V2057.6z M2198.2,2055.2h7.2c-0.2-1.2-0.6-2.1-1.2-2.7
				c-0.6-0.6-1.4-0.9-2.4-0.9c-1,0-1.9,0.3-2.5,1C2198.8,2053.2,2198.4,2054.1,2198.2,2055.2z"/>
			<path class="st2" d="M2226.7,2048.9h3.6v15.5h-2.4l-0.6-1.9c-0.9,0.7-1.9,1.3-2.9,1.7c-1.1,0.4-2.1,0.6-3,0.6c-3.4,0-5.1-2-5.1-6
				v-10h3.6v9.8c0,2.2,0.8,3.2,2.4,3.2c1.3,0,2.8-0.7,4.5-2.1V2048.9z"/>
			<path class="st2" d="M2243.6,2049.5c1.2,0.7,2.1,1.6,2.7,2.9c0.6,1.2,0.9,2.7,0.9,4.4c0,1.6-0.3,3-1,4.2s-1.6,2.2-2.7,2.9
				c-1.2,0.7-2.6,1-4.1,1c-0.9,0-1.9-0.3-3-0.8v7.1l-3.6,0.4v-22.5h1.9l0.8,1c0.6-0.5,1.3-0.8,2-1.1c0.7-0.2,1.4-0.4,2-0.4
				C2241.1,2048.5,2242.5,2048.9,2243.6,2049.5z M2242.5,2060.4c0.7-0.9,1.1-2.1,1.1-3.6c0-1.5-0.4-2.8-1.1-3.7
				c-0.7-0.9-1.7-1.4-3-1.4c-0.6,0-1.1,0.1-1.6,0.3c-0.5,0.2-1,0.4-1.4,0.8v8.2c0.9,0.6,1.9,1,3,1
				C2240.7,2061.8,2241.7,2061.3,2242.5,2060.4z"/>
		</g>
	</g>
</g>
</svg>
