<svg xmlns="http://www.w3.org/2000/svg" width="21.904" height="25.856" viewBox="0 0 21.904 25.856"><path d="M581.243,225.747a2.581,2.581,0,0,0,2.572-2.58h-5.152a2.588,2.588,0,0,0,2.58,2.58Z" transform="translate(-570.287 -199.89)"/><path d="M542.071,85.813V78.731a8.284,8.284,0,0,0-6.441-8.114V69.71a1.931,1.931,0,0,0-3.862,0v.907a8.282,8.282,0,0,0-6.441,8.114v7.082l-2.58,2.58v1.29h21.9v-1.29Zm-18.088,2.671,2.6-2.2V78.3a7.888,7.888,0,0,1,6.067-7.015V69.909c0-.706.346-1.24,1.052-1.24s.995.558.995,1.265l.05,1.373a7.7,7.7,0,0,1,5.917,5.043,15.423,15.423,0,0,1,.25,2.7v7.04l2.5,2.4Z" transform="translate(-522.747 -67.779)"/></svg>