<svg xmlns="http://www.w3.org/2000/svg" width="25.15" height="24.477" viewBox="0 0 25.15 24.477"><path d="M104.238,0A7.746,7.746,0,0,0,96.4,7.63a7.554,7.554,0,0,0,3.157,6.119v.637a2.207,2.207,0,0,0-.165,3.229,2.212,2.212,0,0,0-.624,1.536A2.265,2.265,0,0,0,100.4,21.3a3.912,3.912,0,0,0,7.683,0,2.266,2.266,0,0,0,1.631-2.153,2.213,2.213,0,0,0-.624-1.536,2.207,2.207,0,0,0-.166-3.229v-.637a7.555,7.555,0,0,0,3.157-6.119A7.746,7.746,0,0,0,104.238,0ZM107.4,15.26a.819.819,0,1,1,0,1.638h-6.314a.819.819,0,1,1,0-1.638Zm-3.157,7.783a2.419,2.419,0,0,1-2.305-1.638h4.611A2.418,2.418,0,0,1,104.238,23.043ZM107.4,19.97h-6.314a.819.819,0,1,1,0-1.638H107.4a.819.819,0,1,1,0,1.638Zm.379-7.188a.712.712,0,0,0-.327.6v.449h-.894V11l1.058-1.03a.7.7,0,0,0,0-1.014.751.751,0,0,0-1.042,0L105.3,10.2a.707.707,0,0,0-.216.507v3.123H103.4V10.7a.708.708,0,0,0-.216-.507l-1.274-1.24a.751.751,0,0,0-1.042,0,.7.7,0,0,0,0,1.014L101.923,11v2.826h-.894v-.449a.712.712,0,0,0-.327-.6,6.149,6.149,0,0,1-2.83-5.152,6.369,6.369,0,0,1,12.732,0A6.149,6.149,0,0,1,107.775,12.782Zm0,0" transform="translate(-91.663 0)"/><path d="M3.052,145.319a.727.727,0,0,0-.737-.717H.737a.717.717,0,1,0,0,1.434H2.315A.727.727,0,0,0,3.052,145.319Zm0,0" transform="translate(0 -137.679)"/><path d="M452.182,144.6H450.6a.717.717,0,1,0,0,1.434h1.578a.717.717,0,1,0,0-1.434Zm0,0" transform="translate(-427.77 -137.679)"/><path d="M34.021,249.128l-1.367.768a.707.707,0,0,0-.27.98.749.749,0,0,0,1.006.262l1.367-.768a.707.707,0,0,0,.27-.98A.748.748,0,0,0,34.021,249.128Zm0,0" transform="translate(-30.699 -237.116)"/><path d="M422.619,26.3a.749.749,0,0,0,.368-.1l1.367-.768a.707.707,0,0,0,.27-.979.748.748,0,0,0-1.006-.262l-1.367.768a.707.707,0,0,0-.27.979A.741.741,0,0,0,422.619,26.3Zm0,0" transform="translate(-401.158 -22.937)"/><path d="M424.353,249.9l-1.367-.768a.748.748,0,0,0-1.007.263.707.707,0,0,0,.27.979l1.367.768a.749.749,0,0,0,.368.1.741.741,0,0,0,.639-.359A.706.706,0,0,0,424.353,249.9Zm0,0" transform="translate(-401.157 -237.12)"/><path d="M34.76,24.964,33.393,24.2a.748.748,0,0,0-1.006.263.707.707,0,0,0,.27.979l1.367.768a.749.749,0,0,0,.368.1.741.741,0,0,0,.639-.359A.707.707,0,0,0,34.76,24.964Zm0,0" transform="translate(-30.702 -22.938)"/></svg>